# xmcd CD database file
#
# Track frame offsets:
#	150
#	38979
#	55085
#	96288
#	105087
#	114500
#	119474
#	122960
#	130835
#	134900
#	142660
#	151340
#	157626
#	167827
#	174869
#	185911
#	193026
#	209754
#	247613
#	284325
#	300732
#
# Disc length: 4525 seconds
#
# Revision: 5
# Processed by: cddbd v1.5.2PL0 Copyright (c) Steve Scherf et al.
# Submitted via: CDex 1.51
#
DISCID=2611ab15
DTITLE=Various Artist - Evgeny Svetlanov - Vol.08
DYEAR=1900
DGENRE=Classique
TTITLE0=Rotislav Boiko - Symphony N°2 - I. Adagio  [Ussr State Symphony Orchestra - 1979]
TTITLE1=Rotislav Boiko - Symphony N°2 - II. Allegro
TTITLE2=Rotislav Boiko - Symphony N°2 - III. Andante cantabile
TTITLE3=Rotislav Boiko - Peter's Chimes - Symphonic Suite Op.36 - I. Introduction  [Ussr State Symphony Orch - 1980]
TTITLE4=Rotislav Boiko - Peter's Chimes - Symphonic Suite Op.36 - II. Lullaby
TTITLE5=Rotislav Boiko - Peter's Chimes - Symphonic Suite Op.36 - III. A Big Wooden Gun
TTITLE6=Rotislav Boiko - Peter's Chimes - Symphonic Suite Op.36 - IV. Drum Beat  
TTITLE7=Rotislav Boiko - Peter's Chimes - Symphonic Suite Op.36 - V. The Streets' Alarm Bell
TTITLE8=Rotislav Boiko - Peter's Chimes - Symphonic Suite Op.36 - VI. March Of Poteshny Semenov Regiment
TTITLE9=Rotislav Boiko - Peter's Chimes - Symphonic Suite Op.36 - VII. Chimes Celebrating The Seizure Of The Fortress Of Azov
TTITLE10=Rotislav Boiko - Peter's Chimes - Symphonic Suite Op.36 - VIII. Fall
TTITLE11=Rotislav Boiko - Peter's Chimes - Symphonic Suite Op.36 - IX. Spring
TTITLE12=Rotislav Boiko - Peter's Chimes - Symphonic Suite Op.36 - X. Ships Are Sailing Over The White Sea
TTITLE13=Rotislav Boiko - Peter's Chimes - Symphonic Suite Op.36 - XI. Guests From Overseas 
TTITLE14=Rotislav Boiko - Peter's Chimes - Symphonic Suite Op.36 - XII. A Monument to Russian Warriors
TTITLE15=Rotislav Boiko - Peter's Chimes - Symphonic Suite Op.36 - XIII. Fireworks
TTITLE16=Rotislav Boiko - Symphony N°3 in D minor - I. Poco sostenuto  [Ussr State Symphony Orchestra - 1982]
TTITLE17=Rotislav Boiko - Symphony N°3 in D minor - II. Sentimento con abbandono  [with the Gostelradio Chorus]
TTITLE18=Rotislav Boiko - Symphony N°3 in D minor - III. Grave
TTITLE19=Rotislav Boiko - Symphony N°3 in D minor - IV. Allegro sostenuto 
TTITLE20=Halik Zaimov - Overture  [Grand Symphony Orchestra of TV and Radio - 1954]
EXTD=
EXTT0=
EXTT1=
EXTT2=
EXTT3=
EXTT4=
EXTT5=
EXTT6=
EXTT7=
EXTT8=
EXTT9=
EXTT10=
EXTT11=
EXTT12=
EXTT13=
EXTT14=
EXTT15=
EXTT16=
EXTT17=
EXTT18=
EXTT19=
EXTT20=
PLAYORDER=
